<svg width="55" height="32" viewBox="0 0 55 32" fill="none" xmlns="http://www.w3.org/2000/svg">
    <path
        d="M11.4123 23.2553H11.0953C10.5458 23.2553 10.0175 23.2019 9.51026 23.0951C9.00305 22.9883 8.54867 22.7961 8.14712 22.5185C7.76671 22.2409 7.4497 21.8565 7.1961 21.3654C6.96362 20.8742 6.84739 20.2336 6.84739 19.4434V0H7.3546C7.86181 0 8.35846 0.0640639 8.84454 0.192192C9.33062 0.298965 9.76387 0.501834 10.1443 0.8008C10.5247 1.07841 10.8311 1.4628 11.0636 1.95395C11.2961 2.44511 11.4123 3.07507 11.4123 3.84384V23.2553ZM0 3.17117C0 2.80814 0.0634017 2.44511 0.190205 2.08208C0.317009 1.71905 0.517781 1.38805 0.792522 1.08909C1.06726 0.790123 1.4054 0.555221 1.80695 0.384383C2.20849 0.192191 2.68401 0.0960949 3.23349 0.0960949C3.8041 0.0960949 4.29018 0.202868 4.69173 0.416415C5.09327 0.608607 5.41028 0.854186 5.64275 1.15315C5.89636 1.43076 6.076 1.74041 6.18167 2.08208C6.30847 2.4024 6.37187 2.69069 6.37187 2.94695C6.37187 3.11778 6.36131 3.27794 6.34017 3.42743C6.34017 3.55555 6.30847 3.70504 6.24507 3.87588C5.9492 3.61962 5.61105 3.49149 5.23064 3.49149C4.91363 3.49149 4.64946 3.59826 4.43812 3.81181C4.22678 4.004 4.12111 4.30297 4.12111 4.70871V6.27828C3.95204 6.32099 3.7407 6.34234 3.48709 6.34234C3.19122 6.34234 2.84251 6.31031 2.44097 6.24625C2.03942 6.16083 1.65901 6.00067 1.29974 5.76577C0.940459 5.53086 0.634017 5.21054 0.38041 4.8048C0.126803 4.39907 0 3.85452 0 3.17117ZM18.2914 3.17117C18.2914 3.85452 18.1646 4.39907 17.911 4.8048C17.6574 5.21054 17.3509 5.53086 16.9917 5.76577C16.6324 6.00067 16.252 6.16083 15.8504 6.24625C15.4489 6.31031 15.1002 6.34234 14.8043 6.34234C14.5507 6.34234 14.3394 6.32099 14.1703 6.27828V4.8048C14.1703 4.35636 14.0646 4.02536 13.8533 3.81181C13.6419 3.59826 13.3778 3.49149 13.0608 3.49149C12.6592 3.49149 12.3211 3.61962 12.0463 3.87588C11.9829 3.70504 11.9407 3.55555 11.9195 3.42743C11.9195 3.27794 11.9195 3.11778 11.9195 2.94695C11.9195 2.69069 11.9724 2.4024 12.078 2.08208C12.2048 1.74041 12.3845 1.43076 12.6169 1.15315C12.8706 0.854186 13.1876 0.608607 13.568 0.416415C13.9695 0.202868 14.445 0.0960949 14.9945 0.0960949C15.5651 0.0960949 16.0512 0.192191 16.4527 0.384383C16.8754 0.576576 17.2136 0.822154 17.4672 1.12112C17.7419 1.39873 17.9427 1.72973 18.0695 2.11411C18.2174 2.47714 18.2914 2.8295 18.2914 3.17117Z"
        fill="white" />
    <path
        d="M23.5178 11.98C23.5178 11.7237 23.4967 11.4781 23.4544 11.2432C23.4333 11.0083 23.3699 10.8055 23.2642 10.6346C23.1797 10.4424 23.0423 10.293 22.8521 10.1862C22.683 10.0581 22.44 9.99399 22.123 9.99399C21.9539 9.99399 21.7743 10.026 21.5841 10.0901C21.415 10.1328 21.2565 10.2182 21.1086 10.3463C21.024 10.1755 20.9712 10.0153 20.9501 9.86587C20.9289 9.69503 20.9184 9.52419 20.9184 9.35335C20.9184 8.67 21.2037 8.1041 21.7743 7.65566C22.3449 7.20721 23.0317 6.98298 23.8348 6.98298C25.1029 6.98298 26.075 7.31398 26.7513 7.97598C27.4276 8.61662 27.7657 9.54555 27.7657 10.7628V23.2553C27.2797 23.2553 26.783 23.2019 26.2758 23.0951C25.7897 22.967 25.3353 22.7641 24.9127 22.4865C24.5111 22.1875 24.173 21.8031 23.8982 21.3333C23.6446 20.8422 23.5178 20.2229 23.5178 19.4755V11.98ZM20.5379 18.2583C20.5379 18.5145 20.5485 18.7601 20.5696 18.995C20.6119 19.2299 20.6753 19.4434 20.7599 19.6356C20.8655 19.8065 21.0029 19.956 21.172 20.0841C21.3622 20.1909 21.6158 20.2442 21.9328 20.2442C22.1019 20.2442 22.2709 20.2229 22.44 20.1802C22.6302 20.1161 22.7993 20.02 22.9472 19.8919C23.0317 20.0627 23.0846 20.2336 23.1057 20.4044C23.1269 20.5539 23.1374 20.714 23.1374 20.8849C23.1374 21.5682 22.8521 22.1341 22.2815 22.5826C21.7109 23.031 21.024 23.2553 20.2209 23.2553C18.9529 23.2553 17.9807 22.9136 17.3045 22.2302C16.6282 21.5469 16.29 20.6927 16.29 19.6677V10.7628C16.29 10.0581 16.4168 9.4708 16.6704 9.001C16.9452 8.50984 17.2833 8.11478 17.6849 7.81582C18.1075 7.51685 18.5619 7.3033 19.048 7.17517C19.5552 7.04705 20.0519 6.98298 20.5379 6.98298V18.2583Z"
        fill="white" />
    <path
        d="M30.1975 0H30.5463C31.6452 0 32.5645 0.298966 33.3042 0.896897C34.0651 1.49483 34.4455 2.44511 34.4455 3.74775V23.2553H34.2553C33.7692 23.2553 33.2831 23.1912 32.797 23.0631C32.3321 22.9349 31.8988 22.7321 31.4973 22.4545C31.1169 22.1555 30.7999 21.7818 30.5463 21.3333C30.3138 20.8635 30.1975 20.287 30.1975 19.6036V0Z"
        fill="white" />
    <path
        d="M36.8609 0H37.2096C38.3086 0 39.2279 0.298966 39.9676 0.896897C40.7284 1.49483 41.1088 2.44511 41.1088 3.74775V23.2553H40.9186C40.4325 23.2553 39.9465 23.1912 39.4604 23.0631C38.9954 22.9349 38.5622 22.7321 38.1607 22.4545C37.7802 22.1555 37.4632 21.7818 37.2096 21.3333C36.9772 20.8635 36.8609 20.287 36.8609 19.6036V0Z"
        fill="white" />
    <path
        d="M47.7722 18.1942C47.7722 18.4505 47.7828 18.696 47.8039 18.9309C47.8462 19.1658 47.9096 19.3794 47.9941 19.5716C48.0998 19.7424 48.2372 19.8919 48.4062 20.02C48.5964 20.1268 48.85 20.1802 49.167 20.1802C49.3361 20.1802 49.5052 20.1588 49.6743 20.1161C49.8645 20.0521 50.0335 19.956 50.1815 19.8278C50.266 19.9987 50.3188 20.1695 50.34 20.3403C50.3611 20.4898 50.3717 20.65 50.3717 20.8208C50.3717 21.5042 50.0969 22.0807 49.5475 22.5506C48.998 23.0204 48.2477 23.2553 47.2967 23.2553C46.1555 23.2553 45.2361 22.9029 44.5387 22.1982C43.8624 21.4721 43.5243 20.4364 43.5243 19.0911V7.01501H43.7145C44.9825 7.01501 45.9758 7.32466 46.6944 7.94394C47.4129 8.54187 47.7722 9.51351 47.7722 10.8589V18.1942ZM55 23.7998C55 25.1238 54.6196 26.0741 53.8588 26.6507C53.1191 27.2486 52.1998 27.5475 51.1008 27.5475H50.7521V7.01501H50.9423C51.4072 7.01501 51.8828 7.07908 52.3688 7.20721C52.8549 7.33533 53.2882 7.54888 53.6686 7.84785C54.0701 8.12546 54.3871 8.49917 54.6196 8.96897C54.8732 9.43877 55 10.0047 55 10.6667V23.7998ZM45.4263 28.9249C45.4263 28.2629 45.5531 27.7184 45.8068 27.2913C46.0604 26.8856 46.3668 26.5652 46.7261 26.3303C47.0854 26.0954 47.4658 25.9353 47.8673 25.8499C48.2689 25.7858 48.6176 25.7538 48.9134 25.7538C49.167 25.7538 49.3784 25.7751 49.5475 25.8178V27.2913C49.5475 27.7397 49.6531 28.0707 49.8645 28.2843C50.0758 28.4978 50.34 28.6046 50.657 28.6046C51.0374 28.6046 51.3755 28.4765 51.6714 28.2202C51.7348 28.3911 51.7665 28.5405 51.7665 28.6687C51.7876 28.8182 51.7982 28.9783 51.7982 29.1492C51.7982 29.4054 51.7348 29.6937 51.608 30.014C51.5023 30.3557 51.3227 30.6653 51.0691 30.9429C50.8366 31.2419 50.5196 31.4875 50.1181 31.6797C49.7377 31.8932 49.2727 32 48.7232 32C48.1526 32 47.656 31.9039 47.2333 31.7117C46.8317 31.5195 46.4936 31.2739 46.2189 30.975C45.9653 30.6974 45.7645 30.377 45.6166 30.014C45.4897 29.651 45.4263 29.288 45.4263 28.9249Z"
        fill="white" />
</svg>