<svg width="10" height="10" viewBox="0 0 8 8" fill="none" xmlns="http://www.w3.org/2000/svg">
    <path
        d="M1 6.49998L2.63438 2.82341C2.87344 2.28591 3.26406 1.83123 3.75938 1.5156L6.05469 0.0468524C6.10156 0.0171649 6.15625 0.00153985 6.21094 0.00153985C6.37031 -2.26491e-05 6.5 0.129665 6.5 0.290602V0.315602C6.5 0.356227 6.49219 0.39529 6.47813 0.43279L5.54375 2.76404C5.51406 2.83748 5.5 2.9156 5.5 2.99373C5.5 3.07966 5.51875 3.1656 5.55312 3.24529L7 6.49998H3.76406L3.94844 5.94685L4.57969 5.73592C4.68125 5.70154 4.75 5.60623 4.75 5.49841C4.75 5.3906 4.68125 5.29529 4.57969 5.26092L3.94844 5.04998L3.7375 4.41873C3.70312 4.31873 3.60781 4.24998 3.5 4.24998C3.39219 4.24998 3.29688 4.31873 3.2625 4.42029L3.05156 5.05154L2.42031 5.26248C2.31875 5.29685 2.25 5.39217 2.25 5.49998C2.25 5.60779 2.31875 5.7031 2.42031 5.73748L3.05156 5.94842L3.23594 6.49998H1ZM4.36875 2.21091C4.35156 2.15935 4.30469 2.12498 4.25 2.12498C4.19531 2.12498 4.14844 2.15935 4.13125 2.21091L4.02656 2.52654L3.71094 2.63123C3.65937 2.64841 3.625 2.69529 3.625 2.74998C3.625 2.80466 3.65937 2.85154 3.71094 2.86873L4.02656 2.97341L4.13125 3.28904C4.14844 3.3406 4.19531 3.37498 4.25 3.37498C4.30469 3.37498 4.35156 3.3406 4.36875 3.28904L4.47344 2.97341L4.78906 2.86873C4.84062 2.85154 4.875 2.80466 4.875 2.74998C4.875 2.69529 4.84062 2.64841 4.78906 2.63123L4.47344 2.52654L4.36875 2.21091ZM0.5 6.99998H7.5C7.77656 6.99998 8 7.22341 8 7.49998C8 7.77654 7.77656 7.99998 7.5 7.99998H0.5C0.223437 7.99998 0 7.77654 0 7.49998C0 7.22341 0.223437 6.99998 0.5 6.99998Z"
        fill="white" />
</svg>