<svg width="12" height="14" viewBox="0 0 8 10" fill="none" xmlns="http://www.w3.org/2000/svg">
    <path
        d="M4.16112 3.90344C4.22987 3.69719 4.52112 3.69719 4.58987 3.90344L4.99299 5.11406C5.08172 5.38019 5.23122 5.62199 5.42964 5.8203C5.62806 6.01861 5.86994 6.16798 6.13612 6.25656L7.34612 6.65969C7.55237 6.72844 7.55237 7.01969 7.34612 7.08844L6.13549 7.49156C5.86937 7.5803 5.62757 7.7298 5.42926 7.92821C5.23095 8.12663 5.08158 8.36852 4.99299 8.63469L4.58987 9.84469C4.57505 9.88985 4.54634 9.92918 4.50784 9.95706C4.46934 9.98495 4.42303 9.99996 4.37549 9.99996C4.32796 9.99996 4.28164 9.98495 4.24314 9.95706C4.20465 9.92918 4.17594 9.88985 4.16112 9.84469L3.75799 8.63406C3.66932 8.36801 3.51992 8.12625 3.32161 7.92794C3.12331 7.72964 2.88155 7.58023 2.61549 7.49156L1.40487 7.08844C1.3597 7.07362 1.32038 7.04491 1.29249 7.00641C1.26461 6.96792 1.2496 6.9216 1.2496 6.87406C1.2496 6.82653 1.26461 6.78021 1.29249 6.74172C1.32038 6.70322 1.3597 6.67451 1.40487 6.65969L2.61549 6.25656C2.88155 6.16789 3.12331 6.01849 3.32161 5.82018C3.51992 5.62188 3.66932 5.38012 3.75799 5.11406L4.16112 3.90344ZM1.74674 0.716564C1.7557 0.689498 1.77297 0.665945 1.79608 0.649251C1.81919 0.632557 1.84698 0.623572 1.87549 0.623572C1.904 0.623572 1.93179 0.632557 1.9549 0.649251C1.97802 0.665945 1.99528 0.689498 2.00424 0.716564L2.24612 1.44281C2.35424 1.76656 2.60799 2.02031 2.93174 2.12844L3.65799 2.37031C3.68506 2.37928 3.70861 2.39654 3.7253 2.41965C3.742 2.44277 3.75098 2.47055 3.75098 2.49906C3.75098 2.52758 3.742 2.55536 3.7253 2.57847C3.70861 2.60159 3.68506 2.61885 3.65799 2.62781L2.93174 2.86969C2.77198 2.92271 2.6268 3.01231 2.50777 3.13134C2.38874 3.25037 2.29914 3.39555 2.24612 3.55531L2.00424 4.28156C1.99528 4.30863 1.97802 4.33218 1.9549 4.34888C1.93179 4.36557 1.904 4.37456 1.87549 4.37456C1.84698 4.37456 1.81919 4.36557 1.79608 4.34888C1.77297 4.33218 1.7557 4.30863 1.74674 4.28156L1.50487 3.55531C1.45184 3.39555 1.36225 3.25037 1.24322 3.13134C1.12419 3.01231 0.979008 2.92271 0.819242 2.86969L0.0929919 2.62781C0.0659259 2.61885 0.0423727 2.60159 0.025679 2.57847C0.00898522 2.55536 0 2.52758 0 2.49906C0 2.47055 0.00898522 2.44277 0.025679 2.41965C0.0423727 2.39654 0.0659259 2.37928 0.0929919 2.37031L0.819242 2.12844C0.979008 2.07542 1.12419 1.98582 1.24322 1.86679C1.36225 1.74776 1.45184 1.60258 1.50487 1.44281L1.74674 0.716564ZM6.16487 0.0609391C6.17104 0.0431431 6.1826 0.0277116 6.19794 0.0167901C6.21329 0.00586869 6.23166 0 6.25049 0C6.26933 0 6.28769 0.00586869 6.30304 0.0167901C6.31839 0.0277116 6.32995 0.0431431 6.33612 0.0609391L6.49737 0.544689C6.56924 0.760939 6.73862 0.930314 6.95487 1.00219L7.43862 1.16344C7.45641 1.16961 7.47184 1.18117 7.48277 1.19652C7.49369 1.21186 7.49956 1.23023 7.49956 1.24906C7.49956 1.2679 7.49369 1.28627 7.48277 1.30161C7.47184 1.31696 7.45641 1.32852 7.43862 1.33469L6.95487 1.49594C6.84839 1.53156 6.75164 1.59143 6.67225 1.67082C6.59286 1.75022 6.53299 1.84696 6.49737 1.95344L6.33612 2.43719C6.32995 2.45499 6.31839 2.47042 6.30304 2.48134C6.28769 2.49226 6.26933 2.49813 6.25049 2.49813C6.23166 2.49813 6.21329 2.49226 6.19794 2.48134C6.1826 2.47042 6.17104 2.45499 6.16487 2.43719L6.00362 1.95344C5.96799 1.84696 5.90812 1.75022 5.82873 1.67082C5.74934 1.59143 5.65259 1.53156 5.54612 1.49594L5.06299 1.33469C5.0452 1.32852 5.02976 1.31696 5.01884 1.30161C5.00792 1.28627 5.00205 1.2679 5.00205 1.24906C5.00205 1.23023 5.00792 1.21186 5.01884 1.19652C5.02976 1.18117 5.0452 1.16961 5.06299 1.16344L5.54674 1.00219C5.76299 0.930314 5.93237 0.760939 6.00424 0.544689L6.16487 0.0609391Z"
        fill="white" />
</svg>