<svg width="10" height="10" viewBox="0 0 8 8" fill="none" xmlns="http://www.w3.org/2000/svg">
    <path
        d="M3.25972 0.593056L2.73611 0.788889C2.69444 0.804167 2.66667 0.844444 2.66667 0.888889C2.66667 0.933333 2.69444 0.973611 2.73611 0.988889L3.25972 1.18472L3.45556 1.70833C3.47083 1.75 3.51111 1.77778 3.55556 1.77778C3.6 1.77778 3.64028 1.75 3.65556 1.70833L3.85139 1.18472L4.375 0.988889C4.41667 0.973611 4.44444 0.933333 4.44444 0.888889C4.44444 0.844444 4.41667 0.804167 4.375 0.788889L3.85139 0.593056L3.65556 0.0694444C3.64028 0.0277778 3.6 0 3.55556 0C3.51111 0 3.47083 0.0277778 3.45556 0.0694444L3.25972 0.593056ZM0.640278 5.49167C0.380556 5.75139 0.380556 6.17361 0.640278 6.43472L1.12083 6.91528C1.38056 7.175 1.80278 7.175 2.06389 6.91528L7.35972 1.61806C7.61944 1.35833 7.61944 0.936111 7.35972 0.675L6.87917 0.195833C6.61944 -0.0638889 6.19722 -0.0638889 5.93611 0.195833L0.640278 5.49167ZM6.73056 1.14722L5.27222 2.60556L4.94861 2.28194L6.40694 0.823611L6.73056 1.14722ZM0.104167 1.62778C0.0416667 1.65139 0 1.71111 0 1.77778C0 1.84444 0.0416667 1.90417 0.104167 1.92778L0.888889 2.22222L1.18333 3.00694C1.20694 3.06944 1.26667 3.11111 1.33333 3.11111C1.4 3.11111 1.45972 3.06944 1.48333 3.00694L1.77778 2.22222L2.5625 1.92778C2.625 1.90417 2.66667 1.84444 2.66667 1.77778C2.66667 1.71111 2.625 1.65139 2.5625 1.62778L1.77778 1.33333L1.48333 0.548611C1.45972 0.486111 1.4 0.444444 1.33333 0.444444C1.26667 0.444444 1.20694 0.486111 1.18333 0.548611L0.888889 1.33333L0.104167 1.62778ZM4.99306 5.18333C4.93056 5.20694 4.88889 5.26667 4.88889 5.33333C4.88889 5.4 4.93056 5.45972 4.99306 5.48333L5.77778 5.77778L6.07222 6.5625C6.09583 6.625 6.15556 6.66667 6.22222 6.66667C6.28889 6.66667 6.34861 6.625 6.37222 6.5625L6.66667 5.77778L7.45139 5.48333C7.51389 5.45972 7.55556 5.4 7.55556 5.33333C7.55556 5.26667 7.51389 5.20694 7.45139 5.18333L6.66667 4.88889L6.37222 4.10417C6.34861 4.04167 6.28889 4 6.22222 4C6.15556 4 6.09583 4.04167 6.07222 4.10417L5.77778 4.88889L4.99306 5.18333Z"
        fill="white" />
</svg>