<svg width="10" height="10" viewBox="0 0 8 8" fill="none" xmlns="http://www.w3.org/2000/svg">
    <path
        d="M7.86979 0.854172C8.0434 0.658888 8.0434 0.341747 7.86979 0.146463C7.69617 -0.048821 7.41421 -0.048821 7.24059 0.146463L4.57381 3.14602L4.09184 2.60392C4.03351 2.5383 3.95295 2.50081 3.86961 2.50081C3.69599 2.50081 3.55571 2.65859 3.55571 2.85388V3.3085L5.05994 5.00044H5.46413C5.63774 5.00044 5.77803 4.84265 5.77803 4.64737C5.77803 4.55363 5.74469 4.46302 5.68636 4.3974L5.20439 3.85529L7.87118 0.855734L7.86979 0.854172ZM4.73771 5.52224L3.0918 3.67095C2.49872 3.61314 1.90842 3.85373 1.4834 4.33179L1.37228 4.45677C1.06255 4.80516 0.888928 5.27696 0.888928 5.76908C0.888928 5.87531 0.987543 5.94405 1.07227 5.89718L1.78202 5.4988C1.85147 5.45975 1.91397 5.56286 1.85703 5.62222L0.101393 7.39696C0.0375016 7.46258 0 7.55631 0 7.65474C0 7.84534 0.137506 8 0.306958 8H2.71401C3.25292 8 3.76822 7.75941 4.15018 7.33135C4.5752 6.85329 4.78771 6.18933 4.73771 5.52224Z"
        fill="white" />
</svg>